<svg width="26" height="26" viewBox="0 0 26 26" fill="none" xmlns="http://www.w3.org/2000/svg">
<path d="M5.75977 16.5859H19.1445C22.7432 16.5859 25.4395 13.8574 25.4395 10.4521C25.4395 6.9502 22.6143 4.36133 18.9297 4.36133C17.6084 1.76172 15.1484 0 11.8936 0C7.7793 0 4.43848 3.16895 4.04102 7.17578C2.05371 7.7666 0.560547 9.48535 0.560547 11.8057C0.560547 14.4697 2.50488 16.5859 5.75977 16.5859ZM14.6436 21.7529L16.0293 19.3574C16.2334 19.0029 16.126 18.5947 15.7822 18.3906C15.4277 18.1865 15.0303 18.3047 14.8262 18.6592L13.4297 21.0762C13.2363 21.4092 13.3223 21.8174 13.6875 22.0215C14.0312 22.2256 14.4502 22.0967 14.6436 21.7529ZM6.09277 21.7637L7.47852 19.3682C7.68262 19.0137 7.5752 18.6055 7.23145 18.4014C6.87695 18.1973 6.49023 18.3154 6.27539 18.6699L4.87891 21.0869C4.68555 21.4199 4.78223 21.8281 5.13672 22.0322C5.48047 22.2256 5.89941 22.1074 6.09277 21.7637ZM18.0059 24.7822L19.3916 22.376C19.6064 22.0322 19.499 21.6133 19.1445 21.4092C18.8008 21.2158 18.4033 21.3232 18.1885 21.6885L16.8027 24.1055C16.5986 24.4385 16.6953 24.8467 17.0498 25.0508C17.3936 25.2441 17.8125 25.1152 18.0059 24.7822ZM9.46582 24.7822L10.8516 22.3867C11.0557 22.043 10.9482 21.624 10.6045 21.4199C10.25 21.2158 9.85254 21.334 9.64844 21.6992L8.25195 24.1055C8.05859 24.4385 8.14453 24.8574 8.50977 25.0615C8.85352 25.2549 9.27246 25.126 9.46582 24.7822Z" fill="white"/>
</svg>
