<svg width="21" height="21" viewBox="0 0 21 21" fill="none" xmlns="http://www.w3.org/2000/svg">
<path d="M10.9824 7.55105C11.2837 7.55105 11.5411 7.2811 11.5411 6.94837V4.73227L11.4469 3.74036L11.8926 4.29282L12.6146 5.03361C12.7151 5.14661 12.8532 5.22195 13.0038 5.22195C13.2926 5.22195 13.4935 5.02105 13.4935 4.74483C13.4935 4.58788 13.4245 4.4686 13.2989 4.34932L11.3716 2.54128C11.2272 2.40945 11.1205 2.35922 10.9824 2.35922C10.838 2.35922 10.7312 2.40945 10.5868 2.54128L8.65953 4.34932C8.53397 4.4686 8.46491 4.58788 8.46491 4.74483C8.46491 5.02105 8.66581 5.22195 8.95459 5.22195C9.10526 5.22195 9.24337 5.14661 9.34382 5.03361L10.116 4.24259L10.5115 3.74036L10.4173 4.73227V6.94837C10.4173 7.2811 10.6747 7.55105 10.9824 7.55105ZM14.2217 9.22097C14.4415 9.43442 14.8056 9.43442 15.0504 9.18958L16.0737 8.16628C16.3248 7.92144 16.3186 7.5636 16.0988 7.34388C15.8917 7.12415 15.5276 7.12415 15.2827 7.36899L14.2531 8.39856C14.0083 8.63712 14.002 9.00752 14.2217 9.22097ZM6.91427 9.18958C7.15911 9.43442 7.52323 9.4407 7.73668 9.22097C7.9564 9.00124 7.95013 8.63712 7.71157 8.39856L6.68199 7.36899C6.43715 7.12415 6.07931 7.13043 5.85958 7.34388C5.63986 7.55733 5.63986 7.92144 5.8847 8.16628L6.91427 9.18958ZM14.385 12.4541C14.385 10.5833 12.8469 9.03891 10.9824 9.03891C9.11782 9.03891 7.57345 10.5833 7.57345 12.4541C7.57345 12.8559 7.65506 13.2388 7.80573 13.5904H14.159C14.3034 13.2388 14.385 12.8559 14.385 12.4541ZM4.34033 12.7743H5.79053C6.13581 12.7743 6.40576 12.5231 6.39948 12.2155C6.39321 11.9079 6.13581 11.6568 5.79053 11.6568H4.34033C3.99505 11.6568 3.73765 11.9079 3.73765 12.2155C3.73765 12.5231 4.00133 12.7743 4.34033 12.7743ZM16.1742 12.7743H17.6244C17.9697 12.7743 18.227 12.5231 18.227 12.2155C18.227 11.9079 17.9697 11.6568 17.6244 11.6568H16.1742C15.8289 11.6568 15.5589 11.9079 15.5652 12.2155C15.5715 12.5231 15.8289 12.7743 16.1742 12.7743ZM3.56187 15.5993H18.3966C18.7418 15.5993 19.0243 15.3231 19.0243 14.9966C19.0243 14.6639 18.7418 14.394 18.3966 14.394H3.56187C3.21659 14.394 2.93408 14.6702 2.93408 14.9966C2.93408 15.3168 3.22287 15.5993 3.56187 15.5993Z" fill="white"/>
</svg>
