<svg width="23" height="23" viewBox="0 0 23 23" fill="none" xmlns="http://www.w3.org/2000/svg">
<path d="M4.56067 10.2524C5.55509 9.94169 6.58403 9.78286 7.56464 9.78286C8.82838 9.78286 9.76065 9.98312 10.9622 9.98312C12.226 9.98312 13.0409 9.113 13.0409 7.98047C13.0409 6.82031 12.1638 5.98473 11.052 5.98473C10.2579 5.98473 9.54658 6.47503 9.23582 7.15179C9.10461 7.4142 9.15986 7.71115 9.42918 7.84926C9.67778 7.98738 9.98854 7.90451 10.1543 7.59375C10.2993 7.26918 10.6515 7.01367 11.052 7.01367C11.5976 7.01367 12.0188 7.38658 12.0188 7.98047C12.0188 8.57436 11.6045 8.95417 10.9622 8.95417C9.82971 8.95417 8.87672 8.75391 7.56464 8.75391C6.43901 8.75391 5.29267 8.95417 4.24991 9.27184C3.92534 9.36161 3.79413 9.64474 3.8701 9.92097C3.95297 10.1972 4.21538 10.3491 4.56067 10.2524ZM15.3957 13.5672C17.0323 13.5672 18.1994 12.5175 18.1994 11.0535C18.1994 9.61712 17.0945 8.56055 15.7065 8.56055C14.4772 8.56055 13.5243 9.39614 13.3171 10.5218C13.248 10.8325 13.4138 11.1087 13.69 11.164C13.9731 11.2261 14.2424 11.0604 14.3253 10.7082C14.4496 10.0384 15.0297 9.58259 15.7065 9.58259C16.5213 9.58259 17.1705 10.1834 17.1705 11.0535C17.1705 11.9374 16.473 12.5451 15.3957 12.5451C13.2895 12.5451 10.9968 11.3435 8.22759 11.3435C6.79811 11.3435 5.49293 11.5714 4.243 11.9996C3.93225 12.1032 3.79413 12.3794 3.8701 12.6556C3.95297 12.9319 4.22919 13.0907 4.56067 12.9733C5.70011 12.5589 6.88098 12.3725 8.22759 12.3725C10.9691 12.3725 13.0409 13.5672 15.3957 13.5672ZM10.9761 18.5117C12.0672 18.5117 12.9235 17.6899 12.9235 16.5297C12.9235 14.8585 11.2178 13.9332 8.10329 13.9332C6.82573 13.9332 5.43078 14.1749 4.24991 14.5754C3.93225 14.6859 3.79413 14.9621 3.8701 15.2314C3.95297 15.5146 4.22919 15.6734 4.56067 15.556C5.65867 15.1693 6.87407 14.9552 8.10329 14.9552C10.5617 14.9552 11.8945 15.5698 11.8945 16.5297C11.8945 17.1236 11.4871 17.4827 10.9761 17.4827C10.4719 17.4827 10.1612 17.1512 10.0576 16.6195C9.98163 16.3364 9.74684 16.1361 9.42918 16.1913C9.10461 16.2397 8.9734 16.5435 9.04246 16.8543C9.22201 17.7866 9.9402 18.5117 10.9761 18.5117Z" fill="white"/>
</svg>
